<svg width="24" height="24" viewBox="0 0 24 24" fill="none" xmlns="http://www.w3.org/2000/svg">
  <path d="M2.88 11.02s8.18-3.35 11.02-4.53c1.09-.47 4.78-1.98 4.78-1.98s1.7-.66 1.56.94c-.05.66-.43 2.97-.8 5.47-.57 3.54-1.18 7.4-1.18 7.4s-.09 1.08-.9 1.27c-.8.19-2.13-.66-2.36-.85-.19-.14-3.55-2.26-4.78-3.3-.33-.28-.71-.85.05-1.51 1.7-1.56 3.74-3.49 4.97-4.71.57-.57 1.14-1.89-1.23-.28-3.36 2.31-6.67 4.48-6.67 4.48s-.76.47-2.18.05c-1.42-.43-3.08-.99-3.08-.99s-1.14-.71.8-1.46Z" fill="white"/>
</svg>